<svg width="1920" height="1080" viewBox="0 0 1920 1080" fill="none" xmlns="http://www.w3.org/2000/svg">
<g clip-path="url(#clip0_1_2)">
<rect width="1920" height="1080" rx="15" fill="#F2FAFF"/>
<path fill-rule="evenodd" clip-rule="evenodd" d="M-275.725 474.13L-202.601 489.183C-130.453 503.769 15.7951 533.875 137.749 612.219C259.702 690.563 359.312 818.08 483.857 891.012C608.401 963.945 759.831 983.227 834.57 992.401L910.285 1002.04L801.464 1229.34L736.113 1198.05C671.738 1167.23 541.036 1104.65 411.31 1042.54C281.583 980.432 150.881 917.856 21.1549 855.747C-108.572 793.638 -239.273 731.062 -303.649 700.241L-369 668.953L-275.725 474.13Z" fill="#E3F4FF"/>
<path fill-rule="evenodd" clip-rule="evenodd" d="M-177.725 727.13L-117.197 736.153C-57.4559 744.798 63.6006 762.843 160.551 829.217C257.501 895.59 331.92 1011.05 431.462 1072.01C531.003 1132.97 657.242 1140.19 719.573 1143.42L782.693 1147.04L673.872 1374.33L621.116 1349.07C569.149 1324.19 463.638 1273.67 358.915 1223.54C254.191 1173.4 148.681 1122.88 43.9573 1072.74C-60.766 1022.61 -166.277 972.091 -218.245 947.21L-271 921.953L-177.725 727.13Z" fill="#467BEE"/>
<g clip-path="url(#clip1_1_2)">
<path d="M513.422 241H307.125C290.059 241 276.225 254.835 276.225 271.901V756.857C276.225 773.923 290.059 787.757 307.125 787.757H513.422C530.488 787.757 544.323 773.923 544.323 756.857V271.901C544.323 254.835 530.488 241 513.422 241Z" fill="#292A2E"/>
<path d="M513.321 251H307.219C295.5 251 286 260.5 286 272.219V756.52C286 768.238 295.5 777.738 307.219 777.738H513.321C525.04 777.738 534.54 768.238 534.54 756.52V272.219C534.54 260.5 525.04 251 513.321 251Z" fill="white"/>
<path d="M359.371 246.66H461.173V257.194C461.173 260.215 459.973 263.112 457.838 265.248C455.702 267.384 452.805 268.585 449.785 268.585H370.762C367.741 268.585 364.844 267.385 362.707 265.249C360.571 263.113 359.371 260.215 359.371 257.194V246.66Z" fill="#292A2E"/>
<g opacity="0.15">
<path d="M512.23 564.745H308.316C305.498 564.742 302.796 563.621 300.803 561.628C298.81 559.635 297.689 556.933 297.686 554.115V446.545C297.689 443.727 298.81 441.025 300.803 439.032C302.796 437.04 305.498 435.919 308.316 435.916H512.23C515.048 435.919 517.75 437.04 519.742 439.032C521.735 441.025 522.856 443.727 522.86 446.545V554.115C522.857 556.933 521.736 559.635 519.743 561.628C517.75 563.621 515.048 564.742 512.23 564.745ZM308.316 437.323C305.871 437.326 303.527 438.298 301.799 440.027C300.07 441.756 299.097 444.1 299.094 446.545V554.115C299.097 556.56 300.069 558.904 301.798 560.633C303.527 562.362 305.871 563.335 308.316 563.338H512.23C514.675 563.335 517.019 562.363 518.748 560.634C520.478 558.905 521.45 556.56 521.453 554.115V446.545C521.45 444.099 520.478 441.755 518.748 440.026C517.019 438.297 514.675 437.324 512.23 437.321L308.316 437.323Z" fill="#292A2E"/>
</g>
<path d="M533.041 824.879C533.041 824.879 529.865 841.339 514.451 842.259C499.037 843.179 502.379 855.457 502.379 855.457H561.284V826.027L533.041 824.879Z" fill="#367CFF"/>
<path d="M514.977 527.494C514.977 527.494 511.548 670.613 512.05 677.608L526.445 833.982L564.513 834.686L560.803 671.95C560.803 671.95 563.42 627.06 574.266 585.376C579.815 563.982 583.155 542.076 584.233 520L514.977 527.494Z" fill="#262626"/>
<path d="M601.951 824.879C601.951 824.879 598.775 841.339 583.36 842.259C567.946 843.179 571.289 855.457 571.289 855.457H630.194V826.027L601.951 824.879Z" fill="#367CFF"/>
<path d="M620.12 524.56C620.12 524.56 619.935 519.61 619.974 530.836C620.12 572.712 620.847 620.542 622.622 648.532C625.476 693.527 632.794 835.385 632.794 835.385L594.087 835.06L556.57 522.858L620.12 524.56Z" fill="#262626"/>
<path d="M576.409 573.937C576.409 573.937 574.805 604.326 574.51 611.459C573.822 627.959 573.583 645.042 573.583 664.409L567.482 613.635C567.482 613.635 571.944 597.725 576.409 573.937Z" fill="#0A0A0A"/>
<path d="M620.541 524.556L620.667 524.563C620.667 524.563 620.576 522.121 620.541 524.556Z" fill="#333333"/>
<path d="M508.851 448.374C509.649 457.752 513.532 516.262 514.3 527.814H620.08C620.678 517.395 623.361 471.838 625.627 451.464C627.79 432.022 632.033 422.288 628.923 416.541C623.84 407.147 609.95 401.719 600.479 400.436C594.695 399.654 585.997 399.092 585.997 399.092C585.997 399.092 585.26 413.989 567.696 414.82C543.789 415.945 545.385 399.091 545.267 399.091C541.394 399.091 518.842 400.913 513.857 404.751C505.138 411.464 507.156 428.497 508.851 448.374Z" fill="#367CFF"/>
<path d="M507.389 436.619C507.299 436.619 507.213 436.585 507.147 436.523C507.082 436.462 507.043 436.378 507.037 436.288L506.184 421.395C506.179 421.302 506.211 421.211 506.273 421.141C506.335 421.072 506.422 421.029 506.515 421.024C506.608 421.02 506.699 421.052 506.768 421.113C506.837 421.175 506.88 421.262 506.886 421.355L507.739 436.247C507.745 436.34 507.713 436.432 507.651 436.501C507.589 436.571 507.502 436.613 507.409 436.618L507.389 436.619Z" fill="#0C0C0C"/>
<path d="M642.946 527.198C646.057 527.198 649.122 526.446 651.88 525.006C654.638 523.566 657.008 521.481 658.787 518.929C660.566 516.376 661.702 513.432 662.098 510.346C662.494 507.26 662.139 504.124 661.063 501.205C659.971 498.242 634.351 430.4 629.474 417.83L593.36 432.461C596.103 439.529 606.038 466.319 614.021 487.9L600.759 486.458L596.585 524.857L640.856 527.085C641.55 527.16 642.248 527.198 642.946 527.198Z" fill="#367CFF"/>
<path d="M532.665 397.805C532.783 397.789 536.028 410 561.35 408.1C578.88 406.786 583.157 394.854 583.556 394.854C581.666 394.452 578.597 394.035 577.757 393.588C574.997 392.105 572.986 390.299 571.974 386.425C571.183 383.394 570.778 371.729 570.778 365.876L543.803 371.938C544.18 378.54 546.811 393.845 537.588 396.554C536.054 397.002 534.401 397.414 532.665 397.805Z" fill="#E98862"/>
<path d="M544.738 384.917C555.372 385.756 569.032 381.266 571.627 367.079L573.968 354.276C576.563 340.088 571.215 327.224 557.856 324.781C544.498 322.338 532.409 332.013 529.815 346.201L528.778 351.868C527.783 357.313 525.764 383.42 544.738 384.917Z" fill="#E98862"/>
<path d="M534.877 371.891C536.786 362.299 537.662 355.901 537.56 349.15C534.871 344.437 535.578 339.021 536.189 336.682C534.338 337.859 532.161 338.417 529.972 338.277C529.972 338.277 534.418 320.432 549.531 315.631C552.31 314.549 559.406 313.183 568.827 314.475C576.84 315.574 596.592 321.565 599.414 343.803V343.815C599.507 344.552 601.404 365.041 605.183 374.872C610.266 388.088 617.401 392.193 617.22 407.441C616.988 427.054 580.932 429.664 559.187 428.197C537.442 426.729 525.299 419.579 525.14 405.445C524.967 389.608 531.058 391.079 534.877 371.891Z" fill="#0A0A0A"/>
<path d="M622.336 451.855L619.737 527.802L620.44 527.826L623.039 451.879L622.336 451.855Z" fill="#0C0C0C"/>
<path opacity="0.2" d="M393.128 374.525C393.139 374.555 393.156 374.583 393.178 374.607L397.88 380.032C397.931 380.078 397.997 380.103 398.065 380.103C398.133 380.103 398.199 380.079 398.25 380.035C398.302 379.99 398.335 379.928 398.345 379.861C398.354 379.794 398.339 379.725 398.302 379.668L393.599 374.243C393.556 374.194 393.497 374.161 393.433 374.151C393.368 374.141 393.302 374.154 393.247 374.187C393.191 374.221 393.148 374.273 393.127 374.335C393.106 374.396 393.107 374.464 393.13 374.525H393.128Z" fill="#0C0C0C"/>
<path opacity="0.2" d="M389.764 379.463C389.776 379.493 389.792 379.52 389.813 379.544L393.476 383.835C393.527 383.878 393.591 383.902 393.658 383.902C393.725 383.901 393.789 383.877 393.84 383.834C393.891 383.791 393.924 383.731 393.935 383.665C393.946 383.599 393.932 383.531 393.898 383.474L390.234 379.183C390.19 379.137 390.132 379.107 390.069 379.099C390.005 379.09 389.941 379.103 389.886 379.136C389.831 379.169 389.789 379.219 389.767 379.279C389.745 379.338 389.743 379.404 389.763 379.465L389.764 379.463Z" fill="#0C0C0C"/>
<path opacity="0.2" d="M386.906 385.92C386.917 385.951 386.935 385.981 386.958 386.005L388.735 387.993C388.757 388.027 388.787 388.056 388.821 388.077C388.855 388.099 388.894 388.113 388.934 388.119C388.974 388.124 389.015 388.121 389.054 388.109C389.093 388.097 389.129 388.076 389.159 388.049C389.189 388.022 389.213 387.989 389.23 387.952C389.246 387.914 389.254 387.874 389.253 387.833C389.252 387.793 389.242 387.753 389.224 387.716C389.207 387.68 389.181 387.648 389.15 387.622L387.372 385.635C387.327 385.59 387.269 385.562 387.207 385.555C387.144 385.548 387.081 385.561 387.027 385.594C386.973 385.627 386.932 385.677 386.91 385.736C386.888 385.795 386.887 385.86 386.906 385.92Z" fill="#0C0C0C"/>
<path d="M509.44 456.8C509.361 456.8 509.285 456.773 509.223 456.725C509.161 456.676 509.117 456.608 509.099 456.531C509.08 456.455 509.088 456.374 509.12 456.303C509.153 456.231 509.209 456.172 509.279 456.136L519.322 450.954C519.405 450.911 519.502 450.903 519.591 450.931C519.68 450.96 519.754 451.022 519.796 451.105C519.839 451.188 519.847 451.285 519.819 451.373C519.791 451.462 519.728 451.536 519.645 451.579L509.601 456.761C509.551 456.787 509.496 456.8 509.44 456.8Z" fill="#0C0C0C"/>
<path d="M503.617 284.621H310.161C307.478 284.621 305.303 289.079 305.303 294.578V349.449C305.303 354.948 307.478 359.406 310.161 359.406H503.617C506.3 359.406 508.476 354.948 508.476 349.449V294.578C508.476 289.079 506.3 284.621 503.617 284.621Z" fill="#367CFF"/>
<path opacity="0.2" d="M503.617 284.621H310.161C307.478 284.621 305.303 289.079 305.303 294.578V349.449C305.303 354.948 307.478 359.406 310.161 359.406H503.617C506.3 359.406 508.476 354.948 508.476 349.449V294.578C508.476 289.079 506.3 284.621 503.617 284.621Z" fill="white"/>
<path d="M503.617 360.028H310.162C308.793 360.024 307.481 358.909 306.513 356.925C305.545 354.941 305.001 352.252 305 349.447V294.579C305.001 291.774 305.546 289.086 306.513 287.102C307.481 285.119 308.793 284.003 310.162 284H503.617C504.986 284.003 506.298 285.119 507.265 287.102C508.233 289.085 508.778 291.774 508.779 294.579V349.447C508.778 352.252 508.233 354.942 507.266 356.925C506.298 358.909 504.986 360.025 503.617 360.028V360.028ZM310.162 285.242C308.954 285.245 307.796 286.23 306.942 287.98C306.088 289.731 305.608 292.104 305.606 294.579V349.447C305.608 351.922 306.088 354.296 306.942 356.046C307.796 357.796 308.954 358.781 310.162 358.784H503.617C504.825 358.781 505.983 357.797 506.837 356.046C507.691 354.296 508.171 351.923 508.173 349.447V294.579C508.171 292.104 507.691 289.731 506.837 287.98C505.983 286.23 504.825 285.245 503.617 285.242H310.162Z" fill="#292A2E"/>
<path d="M411.497 347.095H312.887C312.806 347.095 312.729 347.029 312.672 346.913C312.615 346.796 312.583 346.638 312.583 346.473C312.583 346.309 312.615 346.151 312.672 346.034C312.729 345.918 312.806 345.852 312.887 345.852H411.497C411.578 345.852 411.655 345.918 411.712 346.034C411.769 346.151 411.8 346.309 411.8 346.473C411.8 346.638 411.769 346.796 411.712 346.913C411.655 347.029 411.578 347.095 411.497 347.095Z" fill="white"/>
<path d="M500.014 333.892H312.887C312.806 333.892 312.729 333.826 312.672 333.71C312.615 333.593 312.583 333.435 312.583 333.271C312.583 333.106 312.615 332.948 312.672 332.831C312.729 332.715 312.806 332.649 312.887 332.649H500.014C500.094 332.649 500.171 332.715 500.228 332.831C500.285 332.948 500.317 333.106 500.317 333.271C500.317 333.435 500.285 333.593 500.228 333.71C500.171 333.826 500.094 333.892 500.014 333.892Z" fill="white"/>
<path d="M500.014 320.689H312.887C312.806 320.689 312.729 320.623 312.672 320.507C312.616 320.39 312.584 320.232 312.584 320.067C312.584 319.903 312.616 319.745 312.672 319.628C312.729 319.512 312.806 319.446 312.887 319.446H500.014C500.094 319.446 500.171 319.512 500.228 319.628C500.285 319.745 500.317 319.903 500.317 320.067C500.317 320.232 500.285 320.39 500.228 320.507C500.171 320.623 500.094 320.689 500.014 320.689Z" fill="white"/>
<path d="M501.314 500H307.859C305.175 500 303 504.458 303 509.957V564.828C303 570.327 305.175 574.785 307.859 574.785H501.314C503.998 574.785 506.173 570.327 506.173 564.828V509.957C506.173 504.458 503.998 500 501.314 500Z" fill="white"/>
<path d="M503.122 500H308.878C306.184 500 304 504.471 304 509.986V565.014C304 570.529 306.184 575 308.878 575H503.122C505.816 575 508 570.529 508 565.014V509.986C508 504.471 505.816 500 503.122 500Z" fill="#367CFF"/>
<path d="M502.43 556.446H315.303C315.223 556.446 315.146 556.38 315.089 556.264C315.032 556.147 315 555.989 315 555.825C315 555.66 315.032 555.502 315.089 555.385C315.146 555.269 315.223 555.203 315.303 555.203H502.43C502.51 555.203 502.588 555.269 502.644 555.385C502.701 555.502 502.733 555.66 502.733 555.825C502.733 555.989 502.701 556.147 502.644 556.264C502.588 556.38 502.51 556.446 502.43 556.446Z" fill="white"/>
<path d="M502.43 543.242H315.303C315.223 543.242 315.146 543.177 315.089 543.061C315.032 542.944 315 542.786 315 542.621C315 542.456 315.032 542.298 315.089 542.182C315.146 542.065 315.223 542 315.303 542H502.43C502.511 542 502.588 542.065 502.644 542.182C502.701 542.298 502.733 542.456 502.733 542.621C502.733 542.786 502.701 542.944 502.644 543.061C502.588 543.177 502.511 543.242 502.43 543.242Z" fill="white"/>
<path d="M503.617 574.028H310.162C308.793 574.024 307.481 572.909 306.513 570.925C305.546 568.942 305.001 566.253 305 563.448V508.579C305.001 505.774 305.546 503.085 306.513 501.102C307.481 499.119 308.793 498.003 310.162 498H503.617C504.986 498.003 506.298 499.118 507.265 501.102C508.233 503.085 508.778 505.774 508.779 508.579V563.448C508.778 566.253 508.233 568.942 507.265 570.926C506.298 572.909 504.986 574.025 503.617 574.028ZM310.162 499.242C308.954 499.245 307.796 500.23 306.942 501.98C306.088 503.73 305.608 506.103 305.606 508.579V563.448C305.608 565.924 306.088 568.297 306.942 570.047C307.796 571.798 308.954 572.782 310.162 572.785H503.617C504.825 572.782 505.983 571.798 506.837 570.047C507.691 568.297 508.171 565.924 508.173 563.448V508.579C508.171 506.103 507.691 503.73 506.837 501.98C505.983 500.23 504.825 499.245 503.617 499.242H310.162Z" fill="#292A2E"/>
<path d="M502.436 627.723H308.193C305.498 627.723 303.314 632.193 303.314 637.708V692.737C303.314 698.252 305.498 702.723 308.193 702.723H502.436C505.13 702.723 507.314 698.252 507.314 692.737V637.708C507.314 632.193 505.13 627.723 502.436 627.723Z" fill="#367CFF"/>
<path d="M406.228 692.371H307.617C307.537 692.371 307.46 692.306 307.403 692.189C307.346 692.073 307.314 691.915 307.314 691.75C307.314 691.585 307.346 691.427 307.403 691.31C307.46 691.194 307.537 691.129 307.617 691.129H406.228C406.308 691.129 406.385 691.194 406.442 691.31C406.499 691.427 406.531 691.585 406.531 691.75C406.531 691.915 406.499 692.073 406.442 692.189C406.385 692.306 406.308 692.371 406.228 692.371Z" fill="white"/>
<path d="M494.744 679.168H307.617C307.537 679.168 307.46 679.103 307.403 678.986C307.346 678.87 307.314 678.712 307.314 678.547C307.314 678.382 307.346 678.224 307.403 678.108C307.46 677.991 307.537 677.926 307.617 677.926H494.744C494.825 677.926 494.902 677.991 494.958 678.108C495.015 678.224 495.047 678.382 495.047 678.547C495.047 678.712 495.015 678.87 494.958 678.986C494.902 679.103 494.825 679.168 494.744 679.168Z" fill="white"/>
<path d="M494.744 665.965H307.617C307.537 665.965 307.46 665.9 307.403 665.783C307.346 665.667 307.314 665.509 307.314 665.344C307.314 665.179 307.346 665.021 307.403 664.905C307.46 664.788 307.537 664.723 307.617 664.723H494.744C494.825 664.723 494.902 664.788 494.959 664.905C495.015 665.021 495.047 665.179 495.047 665.344C495.047 665.509 495.015 665.667 494.959 665.783C494.902 665.9 494.825 665.965 494.744 665.965Z" fill="white"/>
<path d="M501.931 703.753H308.476C307.107 703.749 305.795 702.634 304.828 700.651C303.86 698.668 303.316 695.979 303.314 693.174V638.304C303.315 635.499 303.86 632.809 304.827 630.826C305.795 628.842 307.107 627.726 308.476 627.723H501.931C503.3 627.726 504.612 628.841 505.58 630.824C506.547 632.808 507.092 635.496 507.093 638.301V693.172C507.092 695.977 506.548 698.666 505.58 700.65C504.612 702.634 503.3 703.75 501.931 703.753V703.753ZM308.476 628.965C307.268 628.968 306.11 629.953 305.256 631.703C304.402 633.453 303.922 635.826 303.92 638.301V693.172C303.922 695.647 304.402 698.02 305.256 699.77C306.11 701.52 307.268 702.505 308.476 702.508H501.931C503.139 702.505 504.297 701.52 505.151 699.77C506.005 698.02 506.486 695.647 506.487 693.172V638.304C506.486 635.828 506.006 633.454 505.152 631.703C504.297 629.953 503.139 628.968 501.931 628.965H308.476Z" fill="#292A2E"/>
<path d="M502.617 384H309.161C306.478 384 304.303 388.458 304.303 393.957V448.828C304.303 454.327 306.478 458.785 309.161 458.785H502.617C505.3 458.785 507.476 454.327 507.476 448.828V393.957C507.476 388.458 505.3 384 502.617 384Z" fill="#367CFF"/>
<path opacity="0.2" d="M502.617 384H309.161C306.478 384 304.303 388.458 304.303 393.957V448.828C304.303 454.327 306.478 458.785 309.161 458.785H502.617C505.3 458.785 507.476 454.327 507.476 448.828V393.957C507.476 388.458 505.3 384 502.617 384Z" fill="white"/>
<path d="M502.832 459.379H309.167C307.797 459.376 306.483 458.275 305.515 456.318C304.546 454.361 304.001 451.708 304 448.941V394.815C304.001 392.048 304.546 389.396 305.515 387.439C306.484 385.483 307.797 384.382 309.167 384.379H502.832C504.202 384.382 505.516 385.482 506.485 387.439C507.454 389.395 507.998 392.048 508 394.815V448.941C507.999 451.709 507.454 454.362 506.485 456.318C505.516 458.275 504.202 459.376 502.832 459.379V459.379ZM309.167 385.604C307.958 385.607 306.799 386.579 305.944 388.305C305.089 390.032 304.608 392.373 304.607 394.815V448.941C304.608 451.383 305.089 453.724 305.944 455.451C306.799 457.178 307.958 458.149 309.167 458.152H502.832C504.041 458.149 505.201 457.178 506.056 455.451C506.911 453.724 507.392 451.383 507.393 448.941V394.815C507.392 392.373 506.911 390.032 506.056 388.305C505.201 386.579 504.041 385.607 502.832 385.604H309.167Z" fill="#292A2E"/>
<path d="M410.497 446.473H311.887C311.806 446.473 311.729 446.408 311.672 446.291C311.615 446.175 311.583 446.017 311.583 445.852C311.583 445.687 311.615 445.529 311.672 445.413C311.729 445.296 311.806 445.231 311.887 445.231H410.497C410.578 445.231 410.655 445.296 410.712 445.413C410.769 445.529 410.8 445.687 410.8 445.852C410.8 446.017 410.769 446.175 410.712 446.291C410.655 446.408 410.578 446.473 410.497 446.473Z" fill="white"/>
<path d="M499.014 433.271H311.887C311.806 433.271 311.729 433.205 311.672 433.089C311.615 432.972 311.583 432.814 311.583 432.649C311.583 432.485 311.615 432.327 311.672 432.21C311.729 432.094 311.806 432.028 311.887 432.028H499.014C499.094 432.028 499.171 432.094 499.228 432.21C499.285 432.327 499.317 432.485 499.317 432.649C499.317 432.814 499.285 432.972 499.228 433.089C499.171 433.205 499.094 433.271 499.014 433.271Z" fill="white"/>
<path d="M499.014 420.067H311.887C311.806 420.067 311.729 420.002 311.672 419.886C311.616 419.769 311.584 419.611 311.584 419.446C311.584 419.281 311.616 419.123 311.672 419.007C311.729 418.89 311.806 418.825 311.887 418.825H499.014C499.094 418.825 499.171 418.89 499.228 419.007C499.285 419.123 499.317 419.281 499.317 419.446C499.317 419.611 499.285 419.769 499.228 419.886C499.171 420.002 499.094 420.067 499.014 420.067Z" fill="white"/>
<path d="M450.775 490.867C447.197 490.867 443.679 489.942 440.564 488.181C437.449 486.42 434.842 483.884 432.996 480.818L387 404.404L422.558 383L457.525 441.091L515.651 404.16L540.276 437.177L462.007 487.565C458.657 489.72 454.758 490.867 450.775 490.867Z" fill="#367CFF"/>
<path d="M387.052 354.069L398.42 367.495L397.716 365.19C397.504 364.442 397.584 363.64 397.94 362.948C398.295 362.256 398.9 361.725 399.633 361.462C400.015 361.339 400.419 361.296 400.819 361.334C401.219 361.373 401.607 361.493 401.96 361.686C402.312 361.88 402.621 362.143 402.868 362.46C403.115 362.777 403.295 363.141 403.397 363.529L408.594 383.098C409.25 385.568 408.915 388.197 407.66 390.423C406.405 392.65 404.33 394.298 401.877 395.016C399.029 395.85 395.997 395.814 393.169 394.914C390.342 394.013 387.848 392.288 386.007 389.961L377.687 379.403C377.244 378.863 377.001 378.186 377 377.488C376.999 376.789 377.239 376.112 377.68 375.57C378.088 375.089 378.639 374.751 379.253 374.605C379.867 374.46 380.511 374.515 381.091 374.762C381.1 374.728 381.116 374.697 381.137 374.669C381.158 374.642 381.185 374.619 381.215 374.602C381.246 374.586 381.279 374.575 381.314 374.572C381.348 374.568 381.383 374.572 381.416 374.582L379.875 372.634C379.403 372.063 379.154 371.34 379.173 370.599C379.192 369.858 379.478 369.149 379.979 368.603C380.492 368.078 381.181 367.763 381.914 367.719C382.646 367.674 383.369 367.904 383.941 368.363C383.945 368.331 383.955 368.301 383.97 368.273L383.337 367.474C382.924 366.927 382.698 366.261 382.693 365.576C382.687 364.89 382.903 364.221 383.307 363.667C383.801 363.071 384.509 362.692 385.279 362.612C386.05 362.531 386.821 362.756 387.427 363.237L387.468 363.197L382.692 357.556C382.447 357.266 382.263 356.93 382.152 356.568C382.042 356.205 382.006 355.824 382.047 355.447C382.089 355.07 382.207 354.706 382.394 354.376C382.581 354.046 382.833 353.758 383.135 353.529C383.735 353.106 384.473 352.927 385.2 353.027C385.927 353.127 386.589 353.5 387.052 354.069Z" fill="#E98862"/>
</g>
</g>
<defs>
<clipPath id="clip0_1_2">
<rect width="1920" height="1080" rx="15" fill="white"/>
</clipPath>
<clipPath id="clip1_1_2">
<rect width="537.255" height="615" fill="white" transform="translate(125 241)"/>
</clipPath>
</defs>
</svg>
